<svg xmlns="http://www.w3.org/2000/svg" viewBox="0 0 500 500"><g id="freepik--background-complete--inject-103"><path d="M113,351.7a6.85,6.85,0,0,1,9.25,8c4.44-2,10,.65,12.38,4.87s2.21,9.51.82,14.17A7.72,7.72,0,0,1,140,392.46a7.7,7.7,0,0,1,3.08,14.93,10.17,10.17,0,0,1-8.38,18.1,10.73,10.73,0,0,1-16.07,9.08,16.47,16.47,0,0,1-25.15,2c-3.26,2-6.86,3.91-10.69,3.7s-7.73-3.35-7.39-7.16c-3.45,1.18-7.29,2.17-10.68.83s-5.55-6.08-3.13-8.81c-6.18,1.13-12.65-4.51-12.37-10.79a8.54,8.54,0,0,1-11-11.71c-4.18-1.59-5.54-7.26-3.85-11.41s5.49-7,9.27-9.4a12.06,12.06,0,0,1,11-18.86,9,9,0,0,1,15-8.79c-.23-6.15,6.72-11.37,12.56-9.45,1.81.59,3.5,1.73,5.4,1.67,2.58-.08,4.55-2.32,7-3.18a7.08,7.08,0,0,1,9,5.53c0-1.82,2-3.18,3.84-2.86a5.28,5.28,0,0,1,3.76,3.61,15.63,15.63,0,0,1,.55,5.42" style="fill:#ebebeb"></path><path d="M114.26,404.53c-.21,0-2.12,15.82-4.27,35.39s-3.72,35.45-3.52,35.47,2.12-15.82,4.27-35.39S114.46,404.55,114.26,404.53Z" style="fill:#e0e0e0"></path><path d="M111.42,427.57c.17.13,2.92-3.17,6.16-7.38s5.73-7.71,5.57-7.84-2.93,3.18-6.16,7.38S111.26,427.45,111.42,427.57Z" style="fill:#e0e0e0"></path><path d="M100,383c-.21,0-1.12,20.65-2,46.12s-1.48,46.15-1.27,46.15,1.11-20.63,2-46.12S100.24,383,100,383Z" style="fill:#e0e0e0"></path><path d="M88.72,384a3.92,3.92,0,0,0,0,.93c0,.68,0,1.56.06,2.65.07,2.4.16,5.71.27,9.75.24,8.23.47,19.61.52,32.17s-.1,23.94-.27,32.18c-.09,4.05-.16,7.35-.21,9.75,0,1.09,0,2,0,2.65a3.92,3.92,0,0,0,0,.93,5.29,5.29,0,0,0,.11-.92c0-.69.1-1.56.18-2.65.13-2.3.29-5.63.44-9.75.3-8.23.54-19.61.49-32.19s-.37-24-.73-32.19c-.19-4.11-.36-7.44-.52-9.74-.08-1.09-.15-2-.2-2.65A5.29,5.29,0,0,0,88.72,384Z" style="fill:#e0e0e0"></path><path d="M83.94,414.3c-.18.06.59,2.7,2.32,5.6s3.67,4.85,3.81,4.72-1.49-2.26-3.16-5.1S84.15,414.22,83.94,414.3Z" style="fill:#e0e0e0"></path><path d="M67.81,397.19a2.82,2.82,0,0,0,.11.8c.13.6.28,1.34.47,2.25.45,2.05,1.07,4.84,1.81,8.25,1.53,7,3.56,16.6,5.58,27.29s3.63,20.41,4.74,27.45c.55,3.45,1,6.27,1.32,8.35.16.91.28,1.66.38,2.26a2.84,2.84,0,0,0,.19.78,3.71,3.71,0,0,0,0-.8q-.09-.9-.24-2.28c-.22-2-.59-4.85-1.08-8.38-1-7.07-2.52-16.81-4.53-27.52s-4.14-20.33-5.8-27.27c-.83-3.47-1.53-6.27-2-8.2-.25-.89-.45-1.63-.61-2.21A4.23,4.23,0,0,0,67.81,397.19Z" style="fill:#e0e0e0"></path><path d="M61.34,413.34c-.13.15,2.59,2.85,6.08,6S73.87,425,74,424.81s-2.58-2.84-6.08-6S61.48,413.19,61.34,413.34Z" style="fill:#e0e0e0"></path><path d="M70.89,410.32c.19.09,1.51-2.05,3-4.79s2.47-5,2.29-5.15-1.51,2.05-2.95,4.8S70.71,410.22,70.89,410.32Z" style="fill:#e0e0e0"></path><path d="M38.19,368.81a10,10,0,0,0-7.37-10.6c-.45,4.45,2.22,9.54,7.37,10.6" style="fill:#e0e0e0"></path><path d="M35.84,373.66c-2.22,3.53-9.13,4.37-13.26,2.09a9.76,9.76,0,0,1,13.26-2.09" style="fill:#e0e0e0"></path><rect x="362.82" y="286.63" width="35.79" height="9.47" style="fill:#ebebeb"></rect><path d="M383.48,306.08a.68.68,0,0,1,0-.17v-.49c0-.45,0-1.07,0-1.86,0-1.64,0-4-.06-6.95l.11.11-35.8.07.18-.18h0v9.44l-.18-.18,25.51.08,7.53,0,2,0h.05l-2,0-7.49.06-25.63.08h-.18v-9.62h0l.18-.18,35.8.07h.11v.11c0,3,0,5.36-.06,7,0,.79,0,1.4,0,1.84,0,.19,0,.35,0,.47S383.48,306.08,383.48,306.08Z" style="fill:#e0e0e0"></path><rect x="72.6" y="67.5" width="35.79" height="9.47" style="fill:#ebebeb"></rect><path d="M93.26,87a.68.68,0,0,1,0-.17v-.49c0-.45,0-1.07,0-1.86,0-1.64,0-4-.07-7l.12.11-35.8.07.18-.18h0V87l-.18-.18L83,86.85l7.53.05,2,0h0l-2,0-7.49.06-25.63.08h-.18V77.51h0l.18-.18,35.8.07h.11v.11c0,3-.05,5.36-.07,7,0,.79,0,1.4,0,1.84,0,.19,0,.35,0,.47S93.26,87,93.26,87Z" style="fill:#e0e0e0"></path><rect x="225.82" y="146.4" width="35.79" height="9.47" style="fill:#ebebeb"></rect><path d="M255.78,56.42a1.15,1.15,0,0,1,0-.17v-.48c0-.45,0-1.07,0-1.87,0-1.63,0-4-.06-6.95l.11.11L220,47.14c.08-.08-.19.18.18-.19h0v4.8c0,1.58,0,3.13,0,4.65l-.17-.18,25.51.09,7.52.05,2,0h.72s-.05,0-.16,0l-.51,0-2,0-7.49.05L220,56.6h-.18V51.77c0-.79,0-1.59,0-2.39V47h0l.19-.18,35.79.07h.11V47c0,3,0,5.37-.06,7,0,.78,0,1.4,0,1.84v.46C255.79,56.38,255.79,56.43,255.78,56.42Z" style="fill:#e0e0e0"></path><path d="M260.63,47s0-.06,0-.18,0-.3,0-.5c0-.46,0-1.1,0-1.9,0-1.66,0-4-.07-6.89l.13.14-21.5.05c-.16.16.22-.23.18-.18h0v4.86c0,1.59,0,3.12,0,4.59l-.17-.17,15.38.08,4.48,0,1.21,0,.43,0a1.7,1.7,0,0,1-.39,0l-1.17,0-4.44,0-15.5.08H239V37.5h0s.34-.35.18-.19l21.5.05h.14v.13c0,2.92-.06,5.29-.07,7,0,.79,0,1.41,0,1.87A4.61,4.61,0,0,1,260.63,47Z" style="fill:#e0e0e0"></path><path d="M249.4,361.41s0-.06,0-.17,0-.29,0-.49c0-.44,0-1.06,0-1.86,0-1.64,0-4-.07-6.95l.12.11-35.8.07.18-.18h0v9.45l-.18-.18,25.51.08,7.53.05,2,0h.05l-2,0-7.49.05-25.63.08h-.18V352h0l.18-.18,35.8.07h.11v.11c0,3,0,5.36-.06,7,0,.79,0,1.4,0,1.84,0,.2,0,.35,0,.47S249.4,361.41,249.4,361.41Z" style="fill:#e0e0e0"></path><path d="M254.25,351.94s0-.06,0-.18,0-.3,0-.5c0-.47,0-1.1,0-1.9,0-1.66,0-4-.07-6.89l.13.13-21.51,0c-.16.17.22-.22.18-.18h0v9.45l-.18-.17,15.39.08,4.48,0,1.21,0,.43,0a1.57,1.57,0,0,1-.39,0l-1.17,0-4.45,0-15.5.08h-.17v-.18c0-1.47,0-3,0-4.59v-4.86h0l.18-.18,21.51,0h.13v.13c0,2.92,0,5.29-.07,7,0,.79,0,1.41,0,1.87A4.8,4.8,0,0,1,254.25,351.94Z" style="fill:#e0e0e0"></path><path d="M91.64,289.69s0-.06,0-.17,0-.29,0-.49c0-.44,0-1.06,0-1.86,0-1.63,0-4-.07-6.95l.11.11-35.79.07c.08-.08-.18.19.18-.18h0v9.45l-.18-.18,25.51.08,7.53.06,2,0h.72s0,0-.16,0H91l-2,0-7.49.05-25.63.08h-.18v-9.63h0l.18-.18,35.79.07h.12v.11c0,3-.05,5.37-.07,7,0,.78,0,1.4,0,1.84,0,.19,0,.34,0,.46S91.65,289.7,91.64,289.69Z" style="fill:#e0e0e0"></path><path d="M96.5,280.22s0-.06,0-.18,0-.3,0-.5c0-.47,0-1.1,0-1.9,0-1.66,0-4-.07-6.89l.13.13L75,270.94l.18-.19h0v9.45l-.18-.17,15.39.08,4.48.05,1.21,0,.43,0a1.57,1.57,0,0,1-.39,0l-1.17,0-4.45,0L75,280.4h-.17v-.18c0-1.47,0-3,0-4.59v-4.86h0s.35-.34.18-.18l21.51.05h.13v.13c0,2.92,0,5.29-.07,7,0,.79,0,1.41,0,1.87A4.8,4.8,0,0,1,96.5,280.22Z" style="fill:#e0e0e0"></path><path d="M58.75,211.9a1.15,1.15,0,0,1,0-.17v-.48c0-.45,0-1.07,0-1.87,0-1.63,0-4-.06-6.95l.11.12L23,202.62l.18-.18h0v9.45l-.18-.17,25.51.08,7.52.05,2,0h.72s0,0-.16,0h-.51l-2,0-7.49.05L23,212.08h-.18v-4.83c0-.79,0-1.59,0-2.39v-2.41h0l.19-.19,35.79.07h.11v.11c0,3,0,5.37-.06,7,0,.78,0,1.4,0,1.84v.46C58.76,211.86,58.76,211.91,58.75,211.9Z" style="fill:#e0e0e0"></path><path d="M387.79,423.82a1.15,1.15,0,0,1,0-.17c0-.13,0-.29,0-.49q0-.66,0-1.86c0-1.63,0-4-.06-6.95l.11.11-35.79.07c.08-.08-.18.19.18-.18h0v9.45l-.18-.18,25.51.08,7.52,0,2,0h.72s-.05,0-.16,0h-.51l-2,0-7.49.05L352,424h-.18v-4.84c0-.79,0-1.58,0-2.39v-2.4h0l.19-.18,35.79.07h.11v.11c0,3,0,5.37-.06,7q0,1.17,0,1.83v.47C387.8,423.77,387.8,423.82,387.79,423.82Z" style="fill:#e0e0e0"></path><rect x="424.1" y="238.25" width="15.75" height="241.78" style="fill:#ebebeb"></rect><rect x="428.03" y="92.61" width="7.88" height="166.55" style="fill:#ebebeb"></rect><path d="M443.86,238.25H419.92a1.64,1.64,0,0,1-1.64-1.64h0a1.63,1.63,0,0,1,1.64-1.63h23.94a1.63,1.63,0,0,1,1.63,1.63h0A1.64,1.64,0,0,1,443.86,238.25Z" style="fill:#ebebeb"></path><path d="M405.88,52.57l12.37,36A14.56,14.56,0,0,0,432,98.38h0A14.56,14.56,0,0,0,446,88L456.57,52.4Z" style="fill:#ebebeb"></path><path d="M398,51.11a47.86,47.86,0,0,0,5.7,1.67h54.71l4.54-1.26-13.34-4.3L446,39l-2.53-1.14s-3.2-11.37-12-11.27-12.9,11.32-12.9,11.32L415.47,39l-4.17,8.07Z" style="fill:#ebebeb"></path><path d="M434.68,23.15a2.92,2.92,0,1,1-2.92-2.92A2.93,2.93,0,0,1,434.68,23.15Z" style="fill:#ebebeb"></path><path d="M433.69,16.8a1.94,1.94,0,1,1-1.93-1.93A1.93,1.93,0,0,1,433.69,16.8Z" style="fill:#ebebeb"></path><rect x="431.03" y="16.8" width="1.45" height="9.85" style="fill:#ebebeb"></rect><path d="M410,52.65,421.37,86a12.79,12.79,0,0,0,9.09,8.29h0l-.21-41.46Z" style="fill:#fff"></path><path d="M453.73,52.65,442.4,86a12.79,12.79,0,0,1-9.09,8.29h0l1.37-41.47Z" style="fill:#fff"></path><path d="M462.4,51.69a2.74,2.74,0,0,1-.65.06l-1.87.06-6.9.1L430.24,52c-8.89,0-16.93.05-22.76-.13-2.91-.09-5.26-.27-6.89-.44-.81-.08-1.43-.16-1.86-.23a2.85,2.85,0,0,1-.64-.12,2.49,2.49,0,0,1,.65,0l1.87.12c1.63.1,4,.21,6.88.25,5.82.07,13.86-.06,22.75,0l22.74,0,6.89.08,1.88.05A2.74,2.74,0,0,1,462.4,51.69Z" style="fill:#e0e0e0"></path><path d="M449.59,47.22c0,.17-8.59.3-19.19.3s-19.19-.13-19.19-.3,8.59-.29,19.19-.29S449.59,47.06,449.59,47.22Z" style="fill:#e0e0e0"></path><path d="M445.85,39a5,5,0,0,1-1.16.3c-.75.16-1.85.34-3.21.52a85.89,85.89,0,0,1-10.72.69A101.1,101.1,0,0,1,420,39.93c-1.37-.15-2.47-.3-3.23-.43a4.6,4.6,0,0,1-1.17-.25,4.61,4.61,0,0,1,1.2,0l3.23.24c2.73.19,6.51.39,10.69.38s7.95-.24,10.67-.51S445.83,38.89,445.85,39Z" style="fill:#e0e0e0"></path><path d="M443.68,37.94a3,3,0,0,1-1,.3c-.62.16-1.54.35-2.68.54a57.52,57.52,0,0,1-9,.77,57.22,57.22,0,0,1-9-.65c-1.14-.18-2.06-.35-2.69-.5a3.4,3.4,0,0,1-1-.29,33.89,33.89,0,0,1,3.7.38,76.66,76.66,0,0,0,8.93.48,77.17,77.17,0,0,0,8.92-.6A34.2,34.2,0,0,1,443.68,37.94Z" style="fill:#e0e0e0"></path><path d="M439,97a5.73,5.73,0,0,1-2,.88,16.12,16.12,0,0,1-10.21-.26,5.57,5.57,0,0,1-1.9-1c.06-.18,3,1.28,7,1.36S438.92,96.78,439,97Z" style="fill:#e0e0e0"></path><path d="M441.66,238.24a75.47,75.47,0,0,1-9.34.29,75.47,75.47,0,0,1-9.34-.29,75.47,75.47,0,0,1,9.34-.29A75.47,75.47,0,0,1,441.66,238.24Z" style="fill:#e0e0e0"></path><path d="M480.34,176.12a.83.83,0,0,1,0-.18c0-.12,0-.28,0-.48,0-.45,0-1.07,0-1.86,0-1.64,0-4-.07-6.95l.12.11-35.8.07.18-.18h0v9.46l-.18-.18,25.51.08,7.53,0,2,0h.54l.19,0h-.68l-2,0-7.49.05-25.63.08h-.18v-9.64h0l.18-.19,35.8.08h.11v.11c0,3-.05,5.36-.06,7,0,.79,0,1.4,0,1.84,0,.19,0,.34,0,.47S480.34,176.12,480.34,176.12Z" style="fill:#e0e0e0"></path></g><g id="freepik--Floor--inject-103"><path d="M464,474.2H36.1v10.45H464" style="fill:#f5f5f5"></path><path d="M464,484.65l-2.2,0h-6.44l-24.81,0-91.41.06-303,.06h-.45V474h.45l303,.06,91.39.06,24.8,0h6.44l2.2,0s-.74,0-2.2,0l-6.44,0-24.8,0-91.39.06-303,.06.45-.2v10.45l-.45-.19,303,.05,91.41.06,24.81,0,6.44,0C463.23,484.63,464,484.65,464,484.65Z" style="fill:#263238"></path><path d="M120.21,485.06a75,75,0,0,1,0-10.67,75,75,0,0,1,0,10.67Z" style="fill:#263238"></path><path d="M164.63,485.06a75,75,0,0,1,0-10.67,75,75,0,0,1,0,10.67Z" style="fill:#263238"></path><path d="M209.05,485.06a71.26,71.26,0,0,1,0-10.67,75,75,0,0,1,0,10.67Z" style="fill:#263238"></path><path d="M253.46,485.06a75,75,0,0,1,0-10.67,75,75,0,0,1,0,10.67Z" style="fill:#263238"></path><path d="M296.7,485.06a71.26,71.26,0,0,1,0-10.67,75,75,0,0,1,0,10.67Z" style="fill:#263238"></path><path d="M339.93,485.06a75,75,0,0,1,0-10.67,75,75,0,0,1,0,10.67Z" style="fill:#263238"></path><path d="M383.16,485.06a75,75,0,0,1,0-10.67,75,75,0,0,1,0,10.67Z" style="fill:#263238"></path><path d="M428.49,485.32a75,75,0,0,1,0-10.67,75,75,0,0,1,0,10.67Z" style="fill:#263238"></path><path d="M79.68,485.06a75,75,0,0,1,0-10.67,75,75,0,0,1,0,10.67Z" style="fill:#263238"></path><path d="M464.16,485.37a75.14,75.14,0,0,1,0-10.68,75.14,75.14,0,0,1,0,10.68Z" style="fill:#263238"></path></g><g id="freepik--speech-bubble-2--inject-103"><path d="M382.35,155.62l-4.5-11.2a28.15,28.15,0,1,1,10.06-.6h0Z" style="fill:#fff"></path><path d="M382.35,155.62c.27-.6,2-4.32,5.49-11.84l.08.13h0a.09.09,0,0,1-.09-.09.1.1,0,0,1,.07-.09,28.91,28.91,0,0,0,6.27-2.36,28.57,28.57,0,0,0,6.44-4.64,25.33,25.33,0,0,0,2.91-3.32c.44-.62.9-1.24,1.34-1.89l1.18-2.06a28.05,28.05,0,0,0,2.06-20.54,27.66,27.66,0,0,0-5.47-10.34,28.34,28.34,0,0,0-9.86-7.43,27.32,27.32,0,0,0-12.63-2.46l-1.68.11c-.56,0-1.11.16-1.66.23s-1.11.15-1.64.3l-1.61.42a12,12,0,0,0-1.57.51l-1.55.57-1.47.71a11,11,0,0,0-1.45.75,28.38,28.38,0,0,0-9.25,8.52,27.48,27.48,0,0,0-4.5,11,28.27,28.27,0,0,0,4.43,20.44,29.76,29.76,0,0,0,6.3,6.61,28,28,0,0,0,13.38,5.44.09.09,0,0,1,.07.06c2.82,7.16,4.18,10.64,4.42,11.23l-4.58-11.17.07.06a28.12,28.12,0,0,1-13.52-5.41,30.5,30.5,0,0,1-6.38-6.65,28.53,28.53,0,0,1-4.52-20.67A27.63,27.63,0,0,1,358,100.61,28.72,28.72,0,0,1,367.32,92a13.55,13.55,0,0,1,1.46-.77l1.5-.71,1.57-.58a12.27,12.27,0,0,1,1.59-.51l1.63-.43c.54-.15,1.11-.2,1.66-.3s1.12-.21,1.68-.24l1.71-.11a27.62,27.62,0,0,1,12.79,2.49,28.64,28.64,0,0,1,10,7.54,28.3,28.3,0,0,1,6.39,21.52,28.48,28.48,0,0,1-3,9.72l-1.2,2.08c-.44.66-.91,1.28-1.36,1.91a24.35,24.35,0,0,1-3,3.33,27.93,27.93,0,0,1-6.52,4.66,28.68,28.68,0,0,1-6.33,2.34l0-.18h0a.09.09,0,0,1,.09.09s0,0,0,0Z" style="fill:#263238"></path><path d="M373.06,124.41h17.42l-2.36-2.71v-6.48a6.35,6.35,0,0,0-6.35-6.35h0a6.36,6.36,0,0,0-6.35,6.35v6.17Z" style="fill:#FFC100"></path><path d="M379.33,123.56a2.69,2.69,0,1,0,5.26-.91" style="fill:#FFC100"></path><rect x="381.03" y="106.24" width="1.71" height="3.63" style="fill:#FFC100"></rect></g><g id="freepik--speech-bubble-1--inject-103"><path d="M126.38,177.22l-6.17-10.86a29.13,29.13,0,1,0-7,7.75v0Z" style="fill:#fafafa"></path><path d="M126.38,177.22l-13.17-3-.13,0,.08-.11h0l.13.13a30.14,30.14,0,0,1-6,3.6,29.15,29.15,0,0,1-8,2.27,26.64,26.64,0,0,1-4.6.24c-.79-.05-1.6-.07-2.41-.14l-2.45-.37a29.25,29.25,0,0,1-18.17-11.66,29.09,29.09,0,0,1-4.91-11.22A29.62,29.62,0,0,1,67.15,144,28.69,28.69,0,0,1,73.38,132l1.19-1.31c.39-.44.86-.8,1.28-1.21a15.86,15.86,0,0,1,1.32-1.14l1.39-1.05a11.67,11.67,0,0,1,1.45-.95l1.47-.9,1.54-.75a13.46,13.46,0,0,1,1.56-.69,29.64,29.64,0,0,1,13-2,28.67,28.67,0,0,1,12,3.53,29.45,29.45,0,0,1,13.79,17,31.24,31.24,0,0,1,1.27,9.45,28.78,28.78,0,0,1-1.43,8.16,29.87,29.87,0,0,1-2.91,6.26v-.09l6.09,10.9-6.24-10.82,0,0,0,0a29.82,29.82,0,0,0,2.86-6.23,28.88,28.88,0,0,0,1.38-8.11,31.28,31.28,0,0,0-1.28-9.36,29.22,29.22,0,0,0-13.69-16.77,28.38,28.38,0,0,0-11.82-3.48,29.32,29.32,0,0,0-12.87,2,14.11,14.11,0,0,0-1.54.68l-1.53.75-1.45.88a12.15,12.15,0,0,0-1.43.94l-1.38,1c-.47.33-.86.75-1.3,1.13s-.88.76-1.26,1.19l-1.17,1.29a28.35,28.35,0,0,0-6.16,11.8,29.4,29.4,0,0,0-.35,12.78,29,29,0,0,0,13.11,18.84,29.17,29.17,0,0,0,9.68,3.84l2.43.37c.81.07,1.6.09,2.39.14a25.31,25.31,0,0,0,4.56-.22,28.56,28.56,0,0,0,7.91-2.22,30,30,0,0,0,6-3.55l.54-.41-.42.54h0l0-.14Z" style="fill:#263238"></path><path d="M87.28,151.14a3,3,0,1,1-3-3A3,3,0,0,1,87.28,151.14Z" style="fill:#263238"></path><path d="M99.09,151.14a3,3,0,1,1-3-3A2.95,2.95,0,0,1,99.09,151.14Z" style="fill:#263238"></path><path d="M110.87,149.66a3,3,0,1,1-4-1.08A3,3,0,0,1,110.87,149.66Z" style="fill:#263238"></path></g><g id="freepik--character-2--inject-103"><path d="M290.94,438.88l-.4,22.54s22.78,8,23.11,12.15l-43.73.8-.82-35.15Z" style="fill:#FFC100"></path><path d="M277,459.77a1.78,1.78,0,0,0-1.2,2.06,1.71,1.71,0,0,0,2,1.21,1.89,1.89,0,0,0,1.26-2.19,1.79,1.79,0,0,0-2.26-1" style="fill:#e0e0e0"></path><path d="M269.92,474.37l.06-3.55,41.91.56s2,.81,1.76,2.19Z" style="fill:#263238"></path><path d="M291.25,461.19c0,.21-1.07.33-2.11,1s-1.58,1.62-1.78,1.54.1-1.33,1.37-2.16S291.29,461,291.25,461.19Z" style="fill:#263238"></path><path d="M295.87,463c.05.21-.87.59-1.57,1.5s-.91,1.88-1.12,1.87-.37-1.21.53-2.33S295.86,462.8,295.87,463Z" style="fill:#263238"></path><path d="M298.58,468.44c-.2.05-.51-1,0-2.19s1.52-1.66,1.61-1.49-.51.82-.93,1.79S298.79,468.42,298.58,468.44Z" style="fill:#263238"></path><path d="M290.77,456c-.09.2-1.07-.08-2.28,0s-2.14.5-2.25.32.77-1,2.2-1.06S290.87,455.87,290.77,456Z" style="fill:#263238"></path><path d="M265.52,426.86l-15.65,16.23s11.24,21.35,8.64,24.63L226,438.52l23.34-26.29Z" style="fill:#FFC100"></path><path d="M241.07,432.65a1.79,1.79,0,0,0-2.29.69,1.73,1.73,0,0,0,.67,2.27,1.89,1.89,0,0,0,2.41-.75,1.78,1.78,0,0,0-1-2.28" style="fill:#e0e0e0"></path><path d="M226,438.52l2.46-2.56,30.3,29s.88,1.93-.2,2.8Z" style="fill:#263238"></path><path d="M250.55,443.4c-.15.15-1-.49-2.25-.68s-2.26.1-2.35-.09,1-.9,2.47-.64S250.71,443.28,250.55,443.4Z" style="fill:#263238"></path><path d="M252.69,447.87c-.1.19-1-.16-2.17,0s-1.94.76-2.09.61.55-1.14,2-1.35S252.83,447.72,252.69,447.87Z" style="fill:#263238"></path><path d="M251,453.7c-.18-.1.31-1.09,1.5-1.59s2.25-.19,2.2,0-.93.24-1.9.67S251.14,453.83,251,453.7Z" style="fill:#263238"></path><path d="M253.7,439.3c-.2.09-.73-.79-1.68-1.53s-1.91-1.09-1.87-1.3,1.22-.18,2.33.72S253.89,439.25,253.7,439.3Z" style="fill:#263238"></path><path d="M351.76,194.56l-19.23,12.7.28,5,5,10.59s2.32,2.2,9.13-4.7,15.42-20.61,15.42-20.61Z" style="fill:#ba7f72"></path><path d="M384.13,168.1a1.59,1.59,0,0,0-1.25-.93l-9.42-1.26a3,3,0,0,0-2.29.69l-27,23.17,1.22,1.19,10.12,2.43,28.79-24.87Z" style="fill:#263238"></path><path d="M376.65,170a.6.6,0,0,0,.81,0,.55.55,0,0,0,.27-.74.58.58,0,0,0-.8-.05A.57.57,0,0,0,376.65,170Z" style="fill:#fff"></path><path d="M384.32,168.52a10.94,10.94,0,0,1-1.85-.14l-5-.59-3.46-.43a2,2,0,0,0-1.64.43l-1.54,1.33-6.89,5.94c-4.91,4.2-9.37,8-12.61,10.69l-3.87,3.2a12.6,12.6,0,0,1-1.46,1.11,10.31,10.31,0,0,1,1.32-1.27l3.74-3.33c3.18-2.79,7.6-6.62,12.5-10.82l6.93-5.9,1.56-1.33a2.5,2.5,0,0,1,2-.51l3.46.51,5,.76A13.85,13.85,0,0,1,384.32,168.52Z" style="fill:#455a64"></path><path d="M374.52,173.36s-.85-.41-2,1.92-4.78,9-4.78,9l-4-3.84-6.14-.89s-1.63.83-.86,1.74,4.32,2.64,4.32,2.64l1.65,4.74-6.86-6s-2.84-.05-2.51,1.78,4.25,8.38,4.25,8.38l-3.89-1.42-3.92-4.19s-1.47-.34-1.27,1.05,3.85,7.22,3.85,7.22l5.15,4.56s3.32.66,3.9-.21a11.62,11.62,0,0,0,1-2.21s1.86,0,2.42-.72a5.54,5.54,0,0,0,.72-2.13s2.58,1.23,3.34-.18a17.79,17.79,0,0,0,1.36-5.71c0-1.24,4.51-11.64,4.49-12S376.42,173.13,374.52,173.36Z" style="fill:#ba7f72"></path><path d="M361.55,199.85a3.33,3.33,0,0,1-1.69.05,10.88,10.88,0,0,1-3.88-1.28,10.55,10.55,0,0,1-3.13-2.61c-.66-.83-.92-1.42-.86-1.46s1.59,2,4.3,3.52S361.57,199.66,361.55,199.85Z" style="fill:#8b5d54"></path><path d="M360.74,197.32c-.14.11-1-.74-1.9-2s-1.36-2.38-1.21-2.46.87.88,1.73,2.1S360.87,197.21,360.74,197.32Z" style="fill:#8b5d54"></path><path d="M365.31,193.06c-.13.11-1-.72-1.81-2s-1.12-2.44-1-2.51.75,1,1.5,2.18S365.45,192.94,365.31,193.06Z" style="fill:#8b5d54"></path><path d="M369.77,189.84c-.18,0-.47-1.26-1.07-2.74s-1.28-2.61-1.13-2.72,1.09.91,1.72,2.48A4.87,4.87,0,0,1,369.77,189.84Z" style="fill:#8b5d54"></path><path d="M298.68,90.94c-4.13,1.87-10.54,4.73-14.25,7.33-.86.6-1.82,1.62-1.32,2.54s2.25,1.29,3.17,1.46c3.17.58,10.68.47,15.61-1.9Z" style="fill:#455a64"></path><path d="M301.48,114.35a81.57,81.57,0,0,1-3.38-13.72,28.65,28.65,0,0,1,1.31-13.94c.26-.67,2.45-5.13,3.16-5,.5.06-.86,4.23-.61,4.68,2.4,4.24,3,9.32,2.54,14.17a64,64,0,0,1-3,13.86" style="fill:#263238"></path><path d="M323.28,169.1c-7.31-.25-22.69-21.45-22.59-28.76l.57-44c-.22-11.82,6.47-21.81,18.3-21.7l1.09.07a21.14,21.14,0,0,1,19.72,20.81c.14,10.25.16,21.57-.28,27-.9,11.31-12.34,12.31-12.34,12.31s-.1,2.63-.18,6c-.18,7.47,2.74,28.48-4.74,28.22Z" style="fill:#ba7f72"></path><path d="M327.75,134.88a27.39,27.39,0,0,1-14.45-5.35s3,8.75,14.34,8.49Z" style="fill:#8b5d54"></path><path d="M336.54,104.81a1.62,1.62,0,0,1-1.67,1.53,1.56,1.56,0,0,1-1.57-1.57,1.63,1.63,0,0,1,1.67-1.53A1.55,1.55,0,0,1,336.54,104.81Z" style="fill:#263238"></path><path d="M337.63,100.37c-.22.19-1.38-.79-3.12-.91s-3.07.67-3.25.45.14-.47.73-.84a4.46,4.46,0,0,1,2.62-.61,4.31,4.31,0,0,1,2.46,1C337.58,99.89,337.73,100.28,337.63,100.37Z" style="fill:#263238"></path><path d="M320.62,104.46A1.62,1.62,0,0,1,319,106a1.55,1.55,0,0,1-1.57-1.57,1.63,1.63,0,0,1,1.67-1.52A1.55,1.55,0,0,1,320.62,104.46Z" style="fill:#263238"></path><path d="M320.55,99.62c-.22.2-1.38-.79-3.12-.9s-3.08.67-3.25.45.14-.47.73-.84a4.45,4.45,0,0,1,2.61-.62,4.25,4.25,0,0,1,2.47,1C320.49,99.14,320.65,99.54,320.55,99.62Z" style="fill:#263238"></path><path d="M325.89,113.41a11.72,11.72,0,0,1,2.86-.32c.45,0,.87-.07,1-.37a2.33,2.33,0,0,0-.21-1.34c-.35-1.1-.71-2.26-1.09-3.47-1.5-4.94-2.55-9-2.35-9s1.57,3.9,3.08,8.84c.35,1.22.7,2.38,1,3.49a2.61,2.61,0,0,1,.11,1.76,1.14,1.14,0,0,1-.78.6,3.49,3.49,0,0,1-.76,0A11,11,0,0,1,325.89,113.41Z" style="fill:#263238"></path><path d="M320.83,93.11c-.27.43-1.93-.15-4-.33s-3.78,0-4-.46c-.08-.22.3-.6,1-.91A6.92,6.92,0,0,1,320,92C320.65,92.46,321,92.91,320.83,93.11Z" style="fill:#263238"></path><path d="M337.49,96.27c-.38.38-1.78-.11-3.48-.22s-3.17.11-3.48-.33c-.13-.2.12-.59.77-.93a5.48,5.48,0,0,1,2.86-.5,5.35,5.35,0,0,1,2.74.94C337.48,95.67,337.66,96.09,337.49,96.27Z" style="fill:#263238"></path><path d="M301.62,104.8c-.19-.1-7.63-2.83-7.9,4.93s7.57,6.43,7.59,6.21S301.62,104.8,301.62,104.8Z" style="fill:#ba7f72"></path><path d="M299.05,112.92s-.14.09-.37.18a1.34,1.34,0,0,1-1,0c-.81-.33-1.46-1.66-1.45-3.06a4.56,4.56,0,0,1,.45-1.92,1.57,1.57,0,0,1,1.05-1,.7.7,0,0,1,.79.4c.1.22,0,.37.08.39s.17-.13.12-.45a.91.91,0,0,0-.29-.5,1.06,1.06,0,0,0-.74-.22,1.9,1.9,0,0,0-1.45,1.15,4.69,4.69,0,0,0-.55,2.15c0,1.56.75,3.06,1.86,3.42a1.46,1.46,0,0,0,1.24-.16C299,113.1,299.07,112.93,299.05,112.92Z" style="fill:#8b5d54"></path><path d="M335.69,82.54c1.27-.66-2.39-4.82-5.43-6.3-4.61-2.24-11.7-3.73-16-2.63-5.22,1.33-9.59,3.8-12.31,8.44a30.55,30.55,0,0,0-3.84,15.49,9.25,9.25,0,0,0,1,4.77c1,1.74,3.09,2.88,2.94,5.24a3.2,3.2,0,0,0,.74,2.39c1.38,1.55,3.15.18,4-1.23,1.78-3,2.07-6.61,2.31-10.09a22.87,22.87,0,0,0-.29-7.39c-.35-1.3-.93-2.54-1.2-3.86a4.7,4.7,0,0,1,.65-3.86,5,5,0,0,1,.65-.62,8.09,8.09,0,0,1,8.07-1.32c4.33,1.66,11.73,4.17,13.71,2.74,2.86-2.06,3.57-3.44,3.57-3.44Z" style="fill:#263238"></path><path d="M321.07,114.22c-.1,0-.18.44,0,1.11a4.33,4.33,0,0,0,1.34,2.32A7,7,0,0,0,324.6,119c.61.25,1,.32,1.07.22s-.27-.36-.8-.72a15.82,15.82,0,0,1-1.94-1.46C321.54,115.82,321.33,114.17,321.07,114.22Z" style="fill:#263238"></path><path d="M332.76,76a21.43,21.43,0,0,0-22-4.3c-6.88,2.72-13.4,9.46-14.11,16.79l.19,5.42,1-.53c6.49-2.37,13.68-5.14,17.88-6,8.73-1.71,23.61,1.14,23.61,1.14A22.41,22.41,0,0,0,332.76,76Z" style="fill:#455a64"></path><path d="M332.14,82.75a3.47,3.47,0,0,0-2.07-1.38,19.42,19.42,0,0,0-8.91-.22,5.12,5.12,0,0,0-2.13.71,1.86,1.86,0,0,0-.82,2c.3,1,1.61,1.32,2.66,1.21a9.76,9.76,0,0,0,3.29-.46,18.4,18.4,0,0,1,6.28.22,2.3,2.3,0,0,0,1,.07A1.45,1.45,0,0,0,332.14,82.75Z" style="fill:#263238"></path><path d="M323.13,83.4a4.51,4.51,0,0,1,2.6,7.11,3.89,3.89,0,0,0,2.51-2.27,3.41,3.41,0,0,1,0,2.55,6,6,0,0,0,2.46-2.29,6.78,6.78,0,0,1,.1,2.87,5.09,5.09,0,0,0,2.31-3.1,7.45,7.45,0,0,0-.11-3.92,3.91,3.91,0,0,0-1.59-2.41,4.92,4.92,0,0,0-2.67-.38,27.74,27.74,0,0,0-5.82.71" style="fill:#263238"></path><path d="M339.52,86.37a12.31,12.31,0,0,1-1.67-.25c-.53-.1-1.19-.22-2-.32s-1.63-.26-2.59-.34a66.49,66.49,0,0,0-6.79-.45,71.71,71.71,0,0,0-8.32.38,73.57,73.57,0,0,0-8.2,1.43,65.09,65.09,0,0,0-6.53,1.91c-.93.29-1.74.63-2.46.9s-1.34.52-1.83.73a12.28,12.28,0,0,1-1.58.61,8.24,8.24,0,0,1,1.49-.79c.49-.25,1.09-.53,1.81-.82s1.52-.66,2.44-1a60.14,60.14,0,0,1,6.54-2,62.6,62.6,0,0,1,16.65-1.82,61.56,61.56,0,0,1,6.82.56c1,.11,1.84.29,2.6.43s1.41.27,1.94.4A10.07,10.07,0,0,1,339.52,86.37Z" style="fill:#263238"></path><path d="M315.68,70.86c.05.08-.87.65-2.15,1.8a19.62,19.62,0,0,0-6.25,11.65c-.25,1.71-.22,2.8-.31,2.8s-.07-.27-.11-.76a11.92,11.92,0,0,1,.06-2.08,17.7,17.7,0,0,1,6.37-11.88,11.3,11.3,0,0,1,1.7-1.2C315.42,70.94,315.66,70.83,315.68,70.86Z" style="fill:#263238"></path><path d="M327.06,81.54a18.84,18.84,0,0,1-.63-2,15.37,15.37,0,0,0-2.34-4.41,15.62,15.62,0,0,0-3.63-3.42,16.45,16.45,0,0,1-1.77-1.14,5.62,5.62,0,0,1,2,.83,13.33,13.33,0,0,1,6.13,8A5.74,5.74,0,0,1,327.06,81.54Z" style="fill:#263238"></path><g style="opacity:0.30000000000000004"><path d="M298,93.35c-4.9,2.19-10.17,4.25-14,8.22a8.24,8.24,0,0,0,2.06.66,25.24,25.24,0,0,0,6.16.38,23.2,23.2,0,0,0,6.06-1Z"></path></g><path d="M264.77,249.09l-5,31.22,3.67,25.8.16,5.6,3.71,27.53s-1.38,25.93-2.07,31.57,1.75,84.9,1.75,84.9l25.23-1.11s9.53-117.62,9.5-118.91,13.12-88,13.12-88Z" style="fill:#263238"></path><path d="M328.53,253.91s-.5,105.65-2.86,111.76S257,437.45,257,437.45l-21-16.36L289.64,349l3.3-100.66Z" style="fill:#263238"></path><path d="M310.94,281.53c.14,0-3,26.7-7,59.58s-7.38,59.54-7.52,59.52,3-26.69,7-59.58S310.8,281.51,310.94,281.53Z" style="fill:#455a64"></path><path d="M267.28,339.24a.86.86,0,0,1,0,.26l0,.76c-.05.71-.12,1.69-.21,2.93-.21,2.54-.44,6.23-.72,10.78-.51,9.1-.94,21.7-.82,35.61s.51,26.51.75,35.63c.11,4.53.19,8.21.25,10.8,0,1.25,0,2.23,0,2.94,0,.31,0,.56,0,.76a.85.85,0,0,1,0,.27.9.9,0,0,1,0-.26c0-.21,0-.46-.05-.77,0-.71-.07-1.69-.13-2.93-.1-2.59-.24-6.27-.42-10.8-.33-9.11-.82-21.71-.91-35.64s.38-26.53,1-35.63c.33-4.56.62-8.24.89-10.78.13-1.23.23-2.21.31-2.92,0-.31.07-.56.09-.76A.7.7,0,0,1,267.28,339.24Z" style="fill:#455a64"></path><path d="M292.78,279.3c.07.13-4.53,2.55-10.25,5.4s-10.43,5.07-10.49,4.94,4.52-2.55,10.25-5.4S292.72,279.17,292.78,279.3Z" style="fill:#455a64"></path><path d="M343.59,197.57,356.25,209s-19.82,21.65-25.95,26.44S332.72,203,332.72,203Z" style="fill:#FFC100"></path><path d="M300.58,129.84l-5.27,7.3-20.5,7.58-9.3,69.71-5.87,62.25s8.21-11.71,14.49-11.87,38.07,8.72,40.22,10.34l4.19-14.09L322,277.38s6,1.34,9.08-7.58l-1.32-30.94s4.2-55.77,4-64.18-5.92-31.76-5.92-31.76l-2.12,6.89-18.46-15.75Z" style="fill:#FFC100"></path><path d="M280.73,142.6s-13.47,0-17.82,24.9-10.62,51.72-7.39,61.73,15.87,38.85,15.87,38.85l17.36-6.26-7.12-45.28,8.24-44.32S290.88,144.42,280.73,142.6Z" style="fill:#FFC100"></path><path d="M296.22,271.83s-8.27-9.73-8.9-9.49l-13.74,5a57,57,0,0,0,.09,10.61c.54,5.08,1.41,10.51,1.41,10.51l18.08-9.64a32.57,32.57,0,0,0,1.76,5.87c1,2.1,4.5-.12,4.5-.12Z" style="fill:#ba7f72"></path><path d="M289.87,172.22s0,.27-.12.79-.23,1.31-.4,2.32l-1.6,8.87c-1.41,7.7-3.44,18.78-5.92,32.37v-.07c2,12.9,4.48,28.35,7.16,45.28l0,.21-.2.07-17.35,6.26-.23.08-.09-.22c-1.76-4.09-3.63-8.41-5.52-12.79-3.31-7.84-6.53-15.51-9.31-23-.36-.94-.67-1.89-1-2.84-.15-.47-.25-1-.37-1.46a8.39,8.39,0,0,1-.28-1.48,24.46,24.46,0,0,1-.25-2.95,28.47,28.47,0,0,1,0-2.92,103,103,0,0,1,1-11.31c1-7.33,2.25-14.22,3.43-20.67s2.33-12.46,3.35-17.94c.47-2.75,1-5.36,1.56-7.81l1-3.53c.39-1.12.82-2.19,1.2-3.23a27.08,27.08,0,0,1,6.22-9.48,16,16,0,0,1,6.13-3.7,10.3,10.3,0,0,1,1.83-.39l.47,0h.16l-.63.08a11.28,11.28,0,0,0-1.8.44,16.22,16.22,0,0,0-6,3.75,26.85,26.85,0,0,0-6.09,9.44c-.38,1-.8,2.1-1.17,3.21s-.66,2.31-1,3.52c-.53,2.44-1.06,5-1.52,7.79-1,5.49-2.1,11.5-3.28,17.95s-2.44,13.35-3.38,20.66a102.55,102.55,0,0,0-.94,11.26c0,1,0,1.92,0,2.89a25.79,25.79,0,0,0,.25,2.9,8.59,8.59,0,0,0,.27,1.43c.12.48.21,1,.36,1.42.32.94.63,1.89,1,2.83,2.78,7.51,6,15.18,9.31,23L271.63,268l-.32-.14,17.35-6.24-.16.27c-2.65-16.94-5.06-32.39-7.07-45.29v-.07l6.1-32.34c.74-3.82,1.31-6.81,1.7-8.85.2-1,.35-1.77.46-2.31S289.87,172.22,289.87,172.22Z" style="fill:#263238"></path><path d="M325.63,149.81a5.85,5.85,0,0,1-.4.92L324,153.25,319.44,162l-.18.34L319,162c-1.61-2.21-3.46-4.6-5.5-7a142.6,142.6,0,0,0-10.9-11.68c-1.48-1.41-2.7-2.53-3.54-3.31a12.6,12.6,0,0,1-1.29-1.23,10.74,10.74,0,0,1,1.42,1.08c.88.73,2.15,1.81,3.66,3.2a117.12,117.12,0,0,1,11.05,11.61c2.05,2.45,3.89,4.86,5.49,7.09l-.41,0,4.7-8.67,1.38-2.46A4.08,4.08,0,0,1,325.63,149.81Z" style="fill:#263238"></path><path d="M330.17,153.52c.17-.06,1,3.11.42,7.33l-.11.74-.36-.68c-.2-.36-.39-.75-.57-1.14-1-2.2-1.51-4.28-2.05-5.73s-.94-2.31-.87-2.34a7.6,7.6,0,0,1,1.21,2.21c.64,1.43,1.23,3.51,2.18,5.64.18.39.36.76.55,1.11l-.48.07a23.1,23.1,0,0,0,.25-5.12C330.29,154.3,330.12,153.55,330.17,153.52Z" style="fill:#263238"></path><path d="M326.51,153.4a.9.9,0,0,1,0,.28c0,.22,0,.48,0,.82,0,.72,0,1.78,0,3.15,0,2.73-.15,6.68-.42,11.56-.52,9.77-1.71,23.21-2.93,38.07s-2.42,28.27-3.25,38c-.44,4.83-.8,8.76-1.05,11.52-.13,1.33-.23,2.37-.31,3.13q-.06.5-.09.81a1.75,1.75,0,0,1-.05.28,1.23,1.23,0,0,1,0-.28c0-.22,0-.49.05-.82,0-.76.12-1.81.21-3.14l.88-11.54c.8-9.77,1.89-23.2,3.1-38.05s2.47-28.29,3.08-38c.32-4.87.49-8.82.59-11.55.05-1.33.09-2.38.11-3.14,0-.34,0-.61,0-.82A1.07,1.07,0,0,1,326.51,153.4Z" style="fill:#263238"></path><path d="M333.78,182.69c.14,0-.63,12.66-1.73,28.26s-2.11,28.23-2.25,28.22.63-12.66,1.73-28.26S333.64,182.68,333.78,182.69Z" style="fill:#263238"></path><path d="M293.23,161c-.09,0-.09-1.25-.58-3.16a15.52,15.52,0,0,0-10-10.87c-1.87-.66-3.11-.76-3.1-.86a2.62,2.62,0,0,1,.88,0,12.41,12.41,0,0,1,2.34.49A14.82,14.82,0,0,1,293,157.72a12.76,12.76,0,0,1,.29,2.37A2.28,2.28,0,0,1,293.23,161Z" style="fill:#263238"></path><g style="opacity:0.30000000000000004"><path d="M330.51,235a56.53,56.53,0,0,0,2-32.26q-1,16.26-2,32.51"></path></g><path d="M287.7,183.51a3.41,3.41,0,0,1-1-.33l-2.7-1.07c-2.27-.9-5.41-2.13-8.91-3.43s-6.69-2.42-9-3.21l-2.74-.95a4.46,4.46,0,0,1-1-.4,3.77,3.77,0,0,1,1,.21c.67.17,1.62.44,2.79.79,2.35.71,5.56,1.77,9.07,3.07s6.64,2.59,8.87,3.58c1.12.5,2,.92,2.64,1.22A5,5,0,0,1,287.7,183.51Z" style="fill:#fff"></path><path d="M291.31,154.14a20.44,20.44,0,0,1-2.95-.82c-1.8-.54-4.29-1.27-7.07-2s-5.32-1.28-7.16-1.67a22.46,22.46,0,0,1-3-.71,15.2,15.2,0,0,1,3,.34c1.86.31,4.43.82,7.22,1.53s5.28,1.52,7.06,2.15A15.34,15.34,0,0,1,291.31,154.14Z" style="fill:#fff"></path><path d="M303.42,144.22a78.37,78.37,0,0,1-8.75,2,77,77,0,0,1-8.85,1.46,78.37,78.37,0,0,1,8.75-2A77,77,0,0,1,303.42,144.22Z" style="fill:#fff"></path><path d="M305.88,134.05a18.5,18.5,0,0,1-2.42,3.62,18.57,18.57,0,0,1-2.83,3.29,19,19,0,0,1,2.42-3.61A18.41,18.41,0,0,1,305.88,134.05Z" style="fill:#fff"></path><path d="M320.09,146.07a26.42,26.42,0,0,1-2.83,4.49,28.75,28.75,0,0,1-3.26,4.2,26.87,26.87,0,0,1,2.83-4.49A28.75,28.75,0,0,1,320.09,146.07Z" style="fill:#fff"></path><path d="M325.24,177.24a8.06,8.06,0,0,1-1.4-.09c-.9-.09-2.19-.24-3.78-.45-3.19-.41-7.58-1.06-12.42-1.92s-9.18-1.74-12.32-2.44c-1.57-.35-2.83-.65-3.7-.88a8.23,8.23,0,0,1-1.35-.39,6.15,6.15,0,0,1,1.39.2l3.74.71c3.15.61,7.51,1.44,12.33,2.29s9.21,1.56,12.38,2.07l3.76.61A6.82,6.82,0,0,1,325.24,177.24Z" style="fill:#fff"></path><path d="M333.89,175.86a33,33,0,0,1-7.92-2.05,16,16,0,0,1,4,.77A16.56,16.56,0,0,1,333.89,175.86Z" style="fill:#fff"></path><path d="M322.6,213.13c0,.14-8.74-1.26-19.46-3.13s-19.4-3.5-19.37-3.65,8.74,1.26,19.46,3.13S322.62,213,322.6,213.13Z" style="fill:#fff"></path><path d="M331.55,212.31a30,30,0,0,1-4.34-.72,29.2,29.2,0,0,1-4.31-.88,22.29,22.29,0,0,1,8.65,1.6Z" style="fill:#fff"></path><path d="M345.16,220.24a103.32,103.32,0,0,1-5.38-8.83c-2.84-4.95-5-9-4.93-9.1a100.51,100.51,0,0,1,5.38,8.84A100.87,100.87,0,0,1,345.16,220.24Z" style="fill:#fff"></path><path d="M281.72,213.07c0,.15-5.82-.71-12.94-1.91s-12.88-2.29-12.86-2.43,5.82.71,13,1.91S281.75,212.93,281.72,213.07Z" style="fill:#fff"></path><path d="M319.83,243.77a8.22,8.22,0,0,1-1.38,0c-.88,0-2.15-.07-3.73-.16-3.15-.18-7.5-.57-12.27-1.25s-9.05-1.53-12.12-2.24c-1.54-.36-2.78-.67-3.63-.9a6.76,6.76,0,0,1-1.31-.42,8.12,8.12,0,0,1,1.36.22l3.65.74c3.09.61,7.37,1.4,12.13,2.08s9.08,1.13,12.22,1.4l3.72.33A6.23,6.23,0,0,1,319.83,243.77Z" style="fill:#fff"></path><path d="M329.8,244.16a46.78,46.78,0,0,1-9.71-1.33,23.75,23.75,0,0,1,4.89.4A22.66,22.66,0,0,1,329.8,244.16Z" style="fill:#fff"></path><path d="M286.9,249.05a17,17,0,0,1-2.84,1.42c-1.78.8-4.28,1.83-7.09,2.84s-5.4,1.79-7.28,2.3a16.26,16.26,0,0,1-3.09.7,21.6,21.6,0,0,1,3-1.05c1.86-.6,4.41-1.44,7.22-2.44s5.31-2,7.12-2.69A20.88,20.88,0,0,1,286.9,249.05Z" style="fill:#fff"></path><g style="opacity:0.30000000000000004"><path d="M289.15,176.08c-4.45,23.09-8.06,45-7.55,42l7.15,43.77,4.22,6.26C289.29,238.7,286.26,205.34,289.15,176.08Z"></path></g></g><g id="freepik--character-1--inject-103"><path d="M190,185.09c-14.29,1.56-32,1.14-46.33-.45-6.13-16.54-1.7-34.35-.48-51.95l31.07-.95Z" style="fill:#263238"></path><path d="M181.07,129.73a4.25,4.25,0,0,0-3.85-4.29l-20-9.46c-7.25-.71-14.66,12.18-15.06,19.45a120.33,120.33,0,0,0,1.49,23.82c2,12.09,10.16,12.43,10.16,12.43l-1,41.19,26.61-21.38Z" style="fill:#ffbe9d"></path><path d="M147.46,146.18a1.55,1.55,0,0,0,1.51,1.55,1.48,1.48,0,0,0,1.59-1.41,1.56,1.56,0,0,0-1.51-1.56A1.49,1.49,0,0,0,147.46,146.18Z" style="fill:#263238"></path><path d="M144.39,141c.17.15,1.39,0,3,.36s2.74,1.09,2.94,1-.07-.26-.55-.58a7.57,7.57,0,0,0-2.34-.95,6.89,6.89,0,0,0-2.42-.15C144.51,140.75,144.31,140.9,144.39,141Z" style="fill:#263238"></path><path d="M162.44,145.05A1.55,1.55,0,0,0,164,146.6a1.48,1.48,0,0,0,1.59-1.41,1.56,1.56,0,0,0-1.51-1.56A1.49,1.49,0,0,0,162.44,145.05Z" style="fill:#263238"></path><path d="M160.87,142.09c.24.06,1.3-.77,3-1.26s3.2-.37,3.35-.54-.2-.22-.84-.28a7.7,7.7,0,0,0-2.72.28,7.06,7.06,0,0,0-2.39,1.15C160.86,141.81,160.75,142.07,160.87,142.09Z" style="fill:#263238"></path><path d="M154.84,153.17a10.52,10.52,0,0,0-2.71-.47c-.43,0-.84-.12-.91-.41a2.22,2.22,0,0,1,.27-1.27c.4-1,.81-2.12,1.24-3.26,1.71-4.64,3-8.45,2.76-8.52s-1.73,3.64-3.44,8.28c-.41,1.14-.81,2.23-1.18,3.28a2.48,2.48,0,0,0-.21,1.68,1.07,1.07,0,0,0,.71.61,2.88,2.88,0,0,0,.72.1A10.91,10.91,0,0,0,154.84,153.17Z" style="fill:#263238"></path><path d="M153.84,171.68A30,30,0,0,0,170,167.34s-3.86,9-16,8Z" style="fill:#eb996e"></path><path d="M155.16,157.23a4.47,4.47,0,0,1,3.18-2.16,1.92,1.92,0,0,1,1.9,1,3,3,0,0,1-.24,2.78,2.57,2.57,0,0,1-2.52,1.26,4.3,4.3,0,0,1-2.11-1.35,1.46,1.46,0,0,1-.43-.59,1,1,0,0,1,.13-.88" style="fill:#eb996e"></path><path d="M159.77,154.28c-.27,0-.26,1.8-1.8,3.11s-3.47,1.11-3.49,1.37.44.34,1.25.36a4.54,4.54,0,0,0,2.91-1,3.94,3.94,0,0,0,1.4-2.6C160.1,154.72,159.9,154.27,159.77,154.28Z" style="fill:#263238"></path><path d="M159.43,134.8c.21.43,1.85,0,3.82.06s3.61.38,3.83-.05c.09-.21-.23-.6-.91-1a6.63,6.63,0,0,0-5.83,0C159.66,134.2,159.33,134.59,159.43,134.8Z" style="fill:#263238"></path><path d="M143.84,137.29c.37.37,1.8,0,3.52-.08s3.18.22,3.51-.18c.14-.2-.09-.57-.73-.93a5.72,5.72,0,0,0-2.87-.58,5.54,5.54,0,0,0-2.79.8C143.87,136.71,143.68,137.11,143.84,137.29Z" style="fill:#263238"></path><path d="M193.07,159.79c-1-5.38-4-22.63-8.7-31.66s-10.14-12.65-15.46-14-11.18-.18-13.55,2-2.09,8.9-2.09,8.9,13.69,3,18.08,10.27c5,8.33,6.29,12.54,6.29,12.54l1.65,4.57s1,23.92.48,28.32l15.29,3.76C193.82,179.21,194.05,165.18,193.07,159.79Z" style="fill:#263238"></path><path d="M153.77,125.38s-7.33-.72-10,7.58c-1.18,3.75-1.46,14.7-1.46,14.7s-1.7-8.7-1.36-13.6,2.72-11.12,6.44-14.58,6.67-5,13.2-4.64a10.37,10.37,0,0,0-4.67,3.57C155.15,119.65,154.79,120.71,153.77,125.38Z" style="fill:#263238"></path><path d="M177.55,148.44a3.68,3.68,0,0,1,5.35-3.18c1.28.72,2.27,2.19,2.18,5-.23,7.59-7.8,5.79-7.81,5.57S177.43,151.58,177.55,148.44Z" style="fill:#ffbe9d"></path><path d="M179.68,153.07s.13.09.35.2a1.29,1.29,0,0,0,1,0,3.27,3.27,0,0,0,1.6-2.88,4.34,4.34,0,0,0-.31-1.91,1.55,1.55,0,0,0-1-1.05.68.68,0,0,0-.79.34c-.11.21-.06.37-.1.38s-.16-.13-.09-.45a.81.81,0,0,1,.31-.46,1,1,0,0,1,.74-.17,1.86,1.86,0,0,1,1.35,1.22,4.58,4.58,0,0,1,.39,2.13c-.1,1.52-.92,2.93-2,3.21a1.4,1.4,0,0,1-1.2-.23C179.69,153.25,179.65,153.08,179.68,153.07Z" style="fill:#eb996e"></path><path d="M161.64,154.75c-.14,0-.46-.63-1.26-1s-1.48-.15-1.54-.28.12-.21.45-.31a2,2,0,0,1,2.27,1C161.71,154.51,161.7,154.73,161.64,154.75Z" style="fill:#eb996e"></path><path d="M162.45,154.75c-.14,0-.41-.44-.84-.93s-.86-.84-.79-1,.68,0,1.19.63S162.58,154.72,162.45,154.75Z" style="fill:#eb996e"></path><path d="M145.9,146.26c-.05.13-.34.14-.64,0s-.5-.33-.44-.46.34-.14.64,0S146,146.12,145.9,146.26Z" style="fill:#eb996e"></path><path d="M175.18,444.52l2.06,23.64-3.76,19.16a2.43,2.43,0,0,0,2.08,2.88h0a2.43,2.43,0,0,0,2.1-.76c3.39-3.7,15.79-17.36,15.54-19.08-.28-2-.51-25.08-.51-25.08Z" style="fill:#FFC100"></path><path d="M175.56,490.2l17.54-21.44.07,1a3.7,3.7,0,0,1-.72,2.42c-1.39,1.86-5.34,6.92-14.72,17.25a2.42,2.42,0,0,1-2.17.76Z" style="fill:#263238"></path><g style="opacity:0.6000000000000001"><path d="M187.75,461.44a1.48,1.48,0,0,0-.28,1.94,1.42,1.42,0,0,0,1.93.29,1.55,1.55,0,0,0,.28-2.06,1.47,1.47,0,0,0-2-.08" style="fill:#fff"></path></g><path d="M180.31,479.51a7.54,7.54,0,0,0-2.19-1.71,7.23,7.23,0,0,0-2.76-.34c0-.06.26-.26.81-.38a3.85,3.85,0,0,1,2.15.24,3.76,3.76,0,0,1,1.68,1.35C180.31,479.14,180.37,479.49,180.31,479.51Z" style="fill:#263238"></path><path d="M178.83,482.79a20.82,20.82,0,0,0-2.16-.88,18.71,18.71,0,0,0-2.33-.15,2.64,2.64,0,0,1,2.44-.36C178.2,481.72,179,482.72,178.83,482.79Z" style="fill:#263238"></path><path d="M183.19,475.25a23.46,23.46,0,0,0-3.24-1.59,24.19,24.19,0,0,0-3.57-.6,5.43,5.43,0,0,1,3.72.1A5.35,5.35,0,0,1,183.19,475.25Z" style="fill:#263238"></path><path d="M183.16,468c0,.14-1.39-.32-3.1-.27s-3,.54-3.09.4a4.74,4.74,0,0,1,3.08-.92A4.63,4.63,0,0,1,183.16,468Z" style="fill:#263238"></path><path d="M182.74,461.06a11.66,11.66,0,0,0-3.23-.37,12.46,12.46,0,0,0-3.09,1c0-.05.2-.36.73-.71a5.28,5.28,0,0,1,4.74-.47C182.47,460.74,182.77,461,182.74,461.06Z" style="fill:#263238"></path><path d="M179.47,459.36a2.08,2.08,0,0,1-.09-.89,6.36,6.36,0,0,1,.56-2.39,2.75,2.75,0,0,1,1.1-1.39,1,1,0,0,1,1.11.14,1.64,1.64,0,0,1,.45,1.05,3.44,3.44,0,0,1-2.81,3.36,4,4,0,0,1-4-1.83,1.4,1.4,0,0,1-.13-1.14.93.93,0,0,1,1-.57,3.51,3.51,0,0,1,1.62.71,7,7,0,0,1,1.73,1.74,2.24,2.24,0,0,1,.42.79,11.43,11.43,0,0,0-2.36-2.22,3.24,3.24,0,0,0-1.42-.59.51.51,0,0,0-.53.31.93.93,0,0,0,.14.75,3.56,3.56,0,0,0,3.52,1.54,3,3,0,0,0,2.42-2.82,1.15,1.15,0,0,0-.28-.74.52.52,0,0,0-.61-.09,2.5,2.5,0,0,0-1,1.16A9.42,9.42,0,0,0,179.47,459.36Z" style="fill:#263238"></path><path d="M154.84,443.46l.35,19.61s-19.81,6.94-20.1,10.57l38,.69.71-30.57Z" style="fill:#FFC100"></path><path d="M167,461.64a1.54,1.54,0,0,1,1,1.79,1.49,1.49,0,0,1-1.76,1.05,1.65,1.65,0,0,1-1.1-1.91,1.55,1.55,0,0,1,2-.88" style="fill:#e0e0e0"></path><path d="M173.13,474.33l0-3.08-36.46.48s-1.7.71-1.53,1.91Z" style="fill:#263238"></path><path d="M154.58,462.87c0,.18.93.28,1.83.9s1.37,1.4,1.55,1.33-.09-1.15-1.2-1.87S154.54,462.69,154.58,462.87Z" style="fill:#263238"></path><path d="M150.56,464.44c-.05.18.75.51,1.36,1.31s.79,1.63,1,1.63.33-1.06-.46-2S150.56,464.27,150.56,464.44Z" style="fill:#263238"></path><path d="M148.2,469.18c.17,0,.45-.88,0-1.91s-1.32-1.45-1.4-1.29.44.7.81,1.55S148,469.16,148.2,469.18Z" style="fill:#263238"></path><path d="M155,458.39c.08.17.93-.07,2,0s1.86.44,2,.28-.67-.84-1.91-.93S154.9,458.24,155,458.39Z" style="fill:#263238"></path><path d="M210.41,283s.7,17.4.36,25.6-15.9,68.88-15.9,68.88l.8,80.24L171.49,457s-6.53-82-6.19-83,0-21.19,0-21.19l6-45.45V284.05Z" style="fill:#455a64"></path><path d="M128.34,280.2s-.94,17.87-.28,28.12,15,66.3,15,66.3L152.61,457h21.31l-2.6-148.31V284.05Z" style="fill:#455a64"></path><g style="opacity:0.30000000000000004"><path d="M129,290h0c9.42,5.74,21,6.84,32,6.37s22-2.35,33-2c5.59.19,12,.71,16-3.19C182.66,290.15,156.27,289.92,129,290Z"></path></g><path d="M171.52,303.74a3.4,3.4,0,0,1-.09.39c-.07.28-.17.65-.29,1.13-.26,1-.68,2.44-1.11,4.33a152.76,152.76,0,0,0-3,16.18,256,256,0,0,0-.93,54.19c1.5,21.17,3.46,40.28,4.84,54.12.68,6.9,1.24,12.5,1.62,16.39.18,1.92.32,3.41.42,4.46,0,.49.07.88.09,1.16a2.41,2.41,0,0,1,0,.4,2.42,2.42,0,0,1-.07-.39c0-.29-.08-.67-.15-1.16l-.51-4.45c-.42-3.89-1-9.48-1.79-16.37-1.47-13.83-3.49-32.94-5-54.13-1.79-21.17-.9-40.49,1.08-54.27a142.39,142.39,0,0,1,3.13-16.18c.46-1.89.91-3.33,1.21-4.31.14-.47.26-.84.34-1.12A1.73,1.73,0,0,1,171.52,303.74Z" style="fill:#263238"></path><path d="M169,313.46a15.09,15.09,0,0,1-4-2.91,15.55,15.55,0,0,1-3.26-3.71,49,49,0,0,1,3.61,3.33C167.32,312,169.05,313.34,169,313.46Z" style="fill:#263238"></path><path d="M138.55,186.3,150,180.73c10.14,3,19.3,3.94,24.22-4.28,0,0,14.55-2.35,18.9,0s4,31.46,4,31.46L201,245.29s11.49,22.79,9.59,46.58l-82.41-1.95s-.9-12.6,3-23.43a56.79,56.79,0,0,0,3.34-20.42l-.64-31.35Z" style="fill:#FFC100"></path><g style="opacity:0.30000000000000004"><path d="M143.52,254.8a60.66,60.66,0,0,0,14-14.18,65.09,65.09,0,0,1,5-6.78,12.7,12.7,0,0,1,7.08-4.24c4.34-.71,8.48,1.78,12.17,4.16L194,241.67a7.25,7.25,0,0,0,3.37,1.43c1.24.08,3,.07,3.13-1.16a82.67,82.67,0,0,1-9.56-6.29c-4.2-3.24-8.65-5.51-12.84-8.75-1.94-1.5-4-3.22-4.45-5.63a5.33,5.33,0,0,0-.64-2.47c-.71-.88-2-.86-3.15-.76-2.2.2-4.51.43-6.37,1.63-2.57,1.66-3.72,4.76-4.85,7.61a96.88,96.88,0,0,1-16,26.69"></path></g><path d="M138.55,186.3s-12.05,2.42-14.4,20.16-9.16,41-5.14,48.34c1.13,2.07,4.94,6.1,7.15,6.91,6.42,2.37,13.22-2.94,17.55-8.24l12.23-18.26,2.57-4.83-13-8.42-7.79,8.14Z" style="fill:#FFC100"></path><path d="M190.7,175.72a28.21,28.21,0,0,1,19.44,13.18c10.17,16.24,16,44.15,14.53,52.54C223.34,249.25,210,254.1,206.5,252c-3.27-2-36.5-30.27-36.5-30.27l10.87-11.87,18.82,9.82-6-19.46Z" style="fill:#FFC100"></path><path d="M142.58,209.59c.18,0-.09,3.87-.72,8.59-.3,2.25-.58,4.3-.81,6a15.54,15.54,0,0,1-.42,2.49c-.18,0,.09-3.88.72-8.59.3-2.26.58-4.3.81-6A15.26,15.26,0,0,1,142.58,209.59Z" style="fill:#263238"></path><path d="M195.25,205.34s0,.07.1.23l.24.72.9,2.78,3.34,10.52.1.33-.3-.16L180.78,210l.24,0-10.84,11.89,0-.34c8.76,7.68,18.67,16.4,29.28,25.41l3.6,3c.61.47,1.2,1,1.81,1.42a4.67,4.67,0,0,0,.92.58,4.18,4.18,0,0,0,1.06.23,13,13,0,0,0,4.41-.49,25.29,25.29,0,0,0,4.17-1.51,20.5,20.5,0,0,0,6.94-5,9.57,9.57,0,0,0,2-3.57,13.93,13.93,0,0,0,.35-4,87,87,0,0,0-2.19-15.24c-1-4.73-2.23-9.08-3.47-13a93.52,93.52,0,0,0-7.44-18,33.3,33.3,0,0,0-3-4.4c-.36-.49-.7-.8-.89-1a4.73,4.73,0,0,1-.3-.37,15.84,15.84,0,0,1,1.27,1.35,29.66,29.66,0,0,1,3,4.35,90.33,90.33,0,0,1,7.62,18c1.27,3.93,2.48,8.29,3.54,13a86.27,86.27,0,0,1,2.25,15.33,14.18,14.18,0,0,1-.36,4.18,10.19,10.19,0,0,1-2.11,3.75,21.22,21.22,0,0,1-7.11,5.14,25.61,25.61,0,0,1-4.25,1.54,13.35,13.35,0,0,1-4.6.51,4.55,4.55,0,0,1-1.19-.27,4.84,4.84,0,0,1-1-.64c-.64-.46-1.22-1-1.84-1.44l-3.61-3c-10.62-9-20.51-17.75-29.25-25.46l-.18-.15.16-.18,10.89-11.85.11-.12.14.07,18.79,9.88-.2.17c-1.38-4.52-2.46-8.1-3.21-10.57-.36-1.21-.64-2.14-.83-2.8l-.21-.72Z" style="fill:#263238"></path><path d="M211.76,219.53c-.1.13-2.42-1.55-5.64-3s-6-2-6-2.19a5.84,5.84,0,0,1,1.87.26,23.85,23.85,0,0,1,4.32,1.46,23.14,23.14,0,0,1,4,2.23A6,6,0,0,1,211.76,219.53Z" style="fill:#263238"></path><path d="M131.74,236.35a2.31,2.31,0,0,1,.22-.26l.69-.76,2.69-2.88,10-10.62.09-.1.13.07,13.39,8,.18.11-.1.19-2.93,5.26h0l-12.59,18.73h0a28.59,28.59,0,0,1-6.8,6.11,13.91,13.91,0,0,1-7.15,2.37,9.14,9.14,0,0,1-1.88-.18,7.71,7.71,0,0,1-1.75-.7,16.73,16.73,0,0,1-3-2.12,19.13,19.13,0,0,1-4.49-5.47,5.43,5.43,0,0,1-.34-.82c-.08-.28-.13-.57-.19-.85l-.19-.85c0-.28-.05-.57-.08-.85a29,29,0,0,1-.1-3.35A97.85,97.85,0,0,1,119,235c.63-3.84,1.31-7.41,1.92-10.66,1.25-6.5,2.25-11.77,2.86-15.42.32-1.82.54-3.24.69-4.2.08-.46.14-.83.18-1.1l.08-.37a2.17,2.17,0,0,1,0,.38c0,.27-.08.64-.13,1.1-.12,1-.31,2.4-.6,4.23-.55,3.66-1.5,8.94-2.7,15.45-.59,3.26-1.24,6.82-1.86,10.66a101.89,101.89,0,0,0-1.34,12.32,27.9,27.9,0,0,0,.11,3.29c0,.28,0,.56.08.83l.18.81c.06.27.11.54.18.81a6.15,6.15,0,0,0,.32.76,18.78,18.78,0,0,0,4.38,5.29c1.78,1.49,3.81,3,6.27,2.87a13.29,13.29,0,0,0,6.87-2.29,28.56,28.56,0,0,0,6.68-6h0l12.62-18.7h0c1-1.82,2-3.6,3-5.25l.08.3-13.35-8,.22,0-10.15,10.51c-1.19,1.2-2.11,2.15-2.76,2.81l-.72.72C131.83,236.28,131.75,236.36,131.74,236.35Z" style="fill:#263238"></path><path d="M172.59,240.56c0,.08-1.21.52-3.12,1.42a40.83,40.83,0,0,0-7,4.21,41.86,41.86,0,0,0-6.05,5.56c-1.4,1.58-2.17,2.64-2.25,2.59a3.53,3.53,0,0,1,.47-.8,22.83,22.83,0,0,1,1.5-2,34.66,34.66,0,0,1,13.22-9.87c1-.41,1.8-.7,2.37-.87A2.85,2.85,0,0,1,172.59,240.56Z" style="fill:#263238"></path><path d="M146.71,222.86l-1.15-7.31-5.4-5.93.65-9.35s2-.66,2,1.18.64,6.33.64,6.33l1.6,1.45-.26-9.08,4.09-5.16a3.25,3.25,0,0,1,.79,3.56,10.49,10.49,0,0,1-1.59,3.16l.4,5.67h1.41v-5.27l6-7.77s.66.52,0,2.89a26.26,26.26,0,0,1-1.85,4.62l2.14,9.62,2,.92,1-1.58,3-6.33a1.46,1.46,0,0,1,1.45.4c.53.66-1.45,5.79-1.58,6.72s2.95,6.85,1.67,9.88l-6,7.8Z" style="fill:#ffbe9d"></path><polygon points="151.86 186.68 151.86 217.56 169.42 217.56 169.42 187.17 151.86 186.68" style="fill:#263238"></polygon><path d="M169.42,193.28s2.83,0,3.09,2.11.26,3,2.11,5.14,3.82,3.95,4.21,8.43l.42,2.26-7.93,8.42s-13.09-.27-14.71-.8A11.32,11.32,0,0,1,153.4,217l-1.84-5.53s.67-1.25,1.85.36a29.44,29.44,0,0,0,3.2,3.46l3.91.39,1.84-.92-7.24-3.16s-5.27-2.9-5.27-3.56.23-2.18.23-2.18a2.54,2.54,0,0,1-.23-2.56c.65-1.45,3.29,0,3.29,0s8,3,9.22,3.16a19.55,19.55,0,0,0,2.9,0l-11.72-6.85s0-1.32,2.37-.79,9.48,3.29,10.8,3.55a4.16,4.16,0,0,0,2.71-.66Z" style="fill:#ffbe9d"></path><path d="M169.42,193.28s0,.2,0,.58,0,.94,0,1.64c0,1.45,0,3.54.07,6.21v.07l0,0a5,5,0,0,1-1.57.65,3.32,3.32,0,0,1-1.84-.12c-1.2-.37-2.47-.82-3.82-1.29s-2.79-1-4.3-1.46a20.36,20.36,0,0,0-2.35-.65,3.13,3.13,0,0,0-1.18,0,.81.81,0,0,0-.7.67l-.1-.17,11.75,6.82.66.38-.76.05a16.6,16.6,0,0,1-3.07,0,31.22,31.22,0,0,1-3-.93c-2-.69-4.05-1.43-6.13-2.21h0a7,7,0,0,0-1.36-.52,1.73,1.73,0,0,0-1.32.09,1.76,1.76,0,0,0-.48,1.25,2.29,2.29,0,0,0,.42,1.37l.06.09v.1c-.1.67-.19,1.37-.23,2.05-.07.1.3.39.54.58a8.87,8.87,0,0,0,.86.61c1.19.79,2.46,1.52,3.74,2.24h0l5.42,2.36,1.83.8.51.22-.5.25-1.84.92-.07,0h-.07l-3.92-.4h-.09l-.06-.06a33.57,33.57,0,0,1-2.49-2.58c-.4-.44-.74-1-1.1-1.34a.91.91,0,0,0-.58-.3.63.63,0,0,0-.48.33l0-.2,1.84,5.53-.08-.11a12.43,12.43,0,0,0,2,1.32,6.42,6.42,0,0,0,1.08.47,8,8,0,0,0,1.14.19c1.58.17,3.15.25,4.69.32,3.08.15,6,.24,8.85.31l-.17.07,8-8.4,0,.16c-.15-.81-.28-1.54-.41-2.26h0a12.12,12.12,0,0,0-1-4.11,13.54,13.54,0,0,0-2.12-3.13,20.53,20.53,0,0,1-2.09-2.6,6,6,0,0,1-.87-2.67,4,4,0,0,0-.53-2.07,2.71,2.71,0,0,0-1.31-.85,7.78,7.78,0,0,0-1.29-.27,3.78,3.78,0,0,1,1.32.17,2.76,2.76,0,0,1,1.39.86,2,2,0,0,1,.44,1c.07.37.11.75.17,1.17a6,6,0,0,0,.88,2.57,20.53,20.53,0,0,0,2.1,2.54,13.55,13.55,0,0,1,2.2,3.18A12.26,12.26,0,0,1,179,209v0c.13.71.27,1.44.42,2.26l0,.09-.07.07-7.9,8.43-.06.08h-.1c-2.82,0-5.78-.13-8.86-.27-1.55-.07-3.12-.14-4.73-.3a9.6,9.6,0,0,1-1.23-.21,9.21,9.21,0,0,1-1.16-.5,13.57,13.57,0,0,1-2.1-1.38l-.05,0,0-.07c-.61-1.81-1.23-3.66-1.85-5.53l0-.11.05-.1a1.11,1.11,0,0,1,.92-.59,1.39,1.39,0,0,1,.94.44c.46.47.74.94,1.14,1.38a32.4,32.4,0,0,0,2.45,2.53l-.15-.07,3.92.39-.14,0,1.84-.92V215l-1.83-.8L155,211.84h0c-1.3-.72-2.56-1.46-3.78-2.26-.3-.2-.6-.4-.89-.63l-.43-.36a2.43,2.43,0,0,1-.2-.25,1,1,0,0,1-.09-.24.47.47,0,0,1,0-.16c0-.73.14-1.41.23-2.1l.06.2a2.81,2.81,0,0,1-.53-1.71,1.72,1.72,0,0,1,2.42-1.81,6.69,6.69,0,0,1,1.49.58l0,0c2.07.78,4.12,1.53,6.11,2.23,1,.33,2,.7,2.94.91a16.27,16.27,0,0,0,3,0l-.09.43-11.71-6.88-.11-.06v-.11a1.17,1.17,0,0,1,1-1.05,3.54,3.54,0,0,1,1.34,0,20.84,20.84,0,0,1,2.39.68c1.52.5,3,1,4.3,1.49s2.61.95,3.79,1.33a3.58,3.58,0,0,0,3.19-.47l0,.1c0-2.7,0-4.81.07-6.28q0-1,0-1.62A2.86,2.86,0,0,1,169.42,193.28Z" style="fill:#eb996e"></path><path d="M163.9,211.22a7.49,7.49,0,0,1-2.15-.38,43.58,43.58,0,0,1-5-1.63,45.5,45.5,0,0,1-4.8-2.18,7.56,7.56,0,0,1-1.85-1.17,11,11,0,0,1,2,.84c1.22.55,2.92,1.28,4.83,2s3.65,1.34,4.93,1.75A11.53,11.53,0,0,1,163.9,211.22Z" style="fill:#eb996e"></path><path d="M165.53,214.42c.07.12-.32.46-.92.43s-1-.42-.86-.53.45,0,.89,0S165.46,214.29,165.53,214.42Z" style="fill:#eb996e"></path><path d="M167.58,210.91c.13.06-.14.67-.87.87s-1.27-.18-1.19-.3.53,0,1-.2S167.45,210.83,167.58,210.91Z" style="fill:#eb996e"></path><path d="M170,206.1c.12.08-.12.56-.7.71s-1-.14-1-.26.43-.12.83-.24S169.89,206,170,206.1Z" style="fill:#eb996e"></path><path d="M172.1,201.16c0,.14-.66.35-1.5.56s-1.54.34-1.6.21.6-.5,1.47-.72S172.08,201,172.1,201.16Z" style="fill:#eb996e"></path><path d="M181,155.56c-1.45-4.07-2.79-8.38-4.51-12.35-.3-.71-1.18-1-1.47-1.72-2.24-5.54-3.9-11.42-7.38-16.28s-9.42-8.59-15.26-7.35l2.18,8.34c3,4.5,9.49,6.06,11.64,11,1.37,3.16.56,6.9,1.74,10.14.78,2.16,2.4,3.93,3.34,6,1.32,2.94,1.23,6.3,1.12,9.53L172,174.59c-.07,2.08-.1,4.34,1.15,6,1.94,2.6,6.59,2.75,9.81,2.36,1.41-.17,3-.06,3.67-.19,0,0-1.4-10.75-1.49-11.4C184,163.49,183.65,163,181,155.56Z" style="fill:#263238"></path><path d="M188.66,173.66a4.61,4.61,0,0,1,0-.7c0-.52.08-1.19.14-2,.11-1.76.32-4.29.4-7.43a54.41,54.41,0,0,0-.71-11,32.69,32.69,0,0,0-1.75-6.22,27.47,27.47,0,0,0-3.29-6.08,21.53,21.53,0,0,0-4.86-4.9,24.23,24.23,0,0,0-5.73-2.92c-3.89-1.4-7.57-2.29-10.42-3.71a16.86,16.86,0,0,1-6-4.44,8,8,0,0,1-1.42-2.34,18.72,18.72,0,0,0,1.58,2.21,17.29,17.29,0,0,0,6,4.24c2.83,1.35,6.48,2.2,10.42,3.59a24.35,24.35,0,0,1,5.87,3,21.69,21.69,0,0,1,5,5,27.32,27.32,0,0,1,3.34,6.21,32.17,32.17,0,0,1,1.75,6.32,51.92,51.92,0,0,1,.61,11.05c-.13,3.15-.39,5.68-.57,7.43-.1.84-.18,1.5-.24,2A3,3,0,0,1,188.66,173.66Z" style="fill:#e0e0e0"></path><path d="M187.2,135.19a23,23,0,0,0-3.92-3.19,26,26,0,0,0-5-2.27,66.51,66.51,0,0,0-6.52-1.8,40.64,40.64,0,0,1-11.43-4.66,22.31,22.31,0,0,1-3-2.23,5.56,5.56,0,0,1-1-1,9,9,0,0,1,1.09.83,27.57,27.57,0,0,0,3.09,2.06,44.4,44.4,0,0,0,11.37,4.48,62,62,0,0,1,6.55,1.84,24.49,24.49,0,0,1,5,2.42,14.91,14.91,0,0,1,2.89,2.41,9.85,9.85,0,0,1,.65.79C187.15,135.08,187.21,135.18,187.2,135.19Z" style="fill:#e0e0e0"></path><path d="M180.89,182.23a9.1,9.1,0,0,1-2.06-1.76,13.3,13.3,0,0,1-3.26-6.61,14.81,14.81,0,0,1-.22-2.46,16.66,16.66,0,0,1,.3-2.67c.34-1.82.95-3.69,1.37-5.69a10.11,10.11,0,0,0-.3-6.19c-.87-2-2.64-3.65-3.6-5.92s-.94-4.68-1.36-6.84a15.09,15.09,0,0,0-2.47-5.81,27.85,27.85,0,0,0-3.79-4.38,28.73,28.73,0,0,0-3.92-3.2A28.92,28.92,0,0,1,155.9,126a7.28,7.28,0,0,1-1.42-2.32,15.34,15.34,0,0,0,1.57,2.18,30.76,30.76,0,0,0,5.74,4.55,29.18,29.18,0,0,1,4,3.2,27.31,27.31,0,0,1,3.89,4.42,15.3,15.3,0,0,1,2.58,6c.43,2.22.44,4.59,1.34,6.74s2.66,3.78,3.58,5.91a10.47,10.47,0,0,1,.31,6.5c-.45,2-1.07,3.89-1.42,5.67a16,16,0,0,0-.31,2.59,14.28,14.28,0,0,0,.17,2.4,13.52,13.52,0,0,0,3,6.53A24.76,24.76,0,0,0,180.89,182.23Z" style="fill:#e0e0e0"></path></g></svg>